<svg width="1440" height="420" viewBox="0 0 1440 420" fill="none" xmlns="http://www.w3.org/2000/svg">
  <rect width="1440" height="420" fill="url(#paint0_linear_1_1)" />
  <path
    d="M0 240C60 214 180 170 300 180C420 190 480 256 600 270C720 284 780 230 900 210C1020 190 1080 236 1200 240C1320 244 1380 214 1440 196V420H0V240Z"
    fill="url(#paint1_linear_1_1)"
    fill-opacity="0.6"
  />
  <path
    d="M0 280C80 252 200 210 320 220C440 230 520 298 640 312C760 326 840 268 960 246C1080 224 1200 256 1320 262C1380 266 1410 260 1440 252V420H0V280Z"
    fill="url(#paint2_linear_1_1)"
    fill-opacity="0.45"
  />
  <defs>
    <linearGradient id="paint0_linear_1_1" x1="0" y1="0" x2="0" y2="420" gradientUnits="userSpaceOnUse">
      <stop stop-color="#E6FBFF" />
      <stop offset="1" stop-color="#F7FAFC" stop-opacity="0.85" />
    </linearGradient>
    <linearGradient id="paint1_linear_1_1" x1="0" y1="180" x2="1440" y2="420" gradientUnits="userSpaceOnUse">
      <stop stop-color="#8AE3D9" />
      <stop offset="1" stop-color="#0FA3B1" />
    </linearGradient>
    <linearGradient id="paint2_linear_1_1" x1="0" y1="210" x2="1440" y2="420" gradientUnits="userSpaceOnUse">
      <stop stop-color="#FFB7B7" />
      <stop offset="1" stop-color="#FF6B6B" />
    </linearGradient>
  </defs>
</svg>
